<svg width="384" height="384" viewBox="0 0 384 384" fill="none" xmlns="http://www.w3.org/2000/svg">
<path fill-rule="evenodd" clip-rule="evenodd" d="M261.403 142.114H261.317L261.317 198.682H308.253C310.318 201.601 312.178 204.369 313.798 206.955H261.317V263.523H304.075C301.962 266.291 299.643 269.06 297.114 271.796H261.317V298.571C258.656 299.909 255.901 301.183 253.05 302.382V271.796H196.633V313.943C195.104 313.981 193.56 314 192 314C190.779 314 189.568 313.988 188.367 313.965L188.367 271.796L131.95 271.796L131.95 302.798C129.1 301.626 126.345 300.38 123.683 299.069V271.796H86.8854C84.3569 269.06 82.038 266.291 79.9246 263.523H123.683V206.955H70.2022C71.8218 204.369 73.6816 201.601 75.747 198.682H123.683L123.683 142.114H122.597C125.709 138.659 128.836 135.22 131.95 131.824V133.841L188.367 133.841L188.367 77.2732H183.817C188.961 72.0374 192 69 192 69C192 69 195.039 72.0374 200.183 77.2732H196.633L196.633 133.841H253.05V132.916C255.833 135.957 258.624 139.029 261.403 142.114ZM67.2663 211.923C64.5335 216.887 62.9999 220.925 62.9999 223.737C62.9999 228.629 64.3927 234.914 67.2663 241.887L67.2663 211.923ZM317.734 239.327C319.931 233.378 321 228.023 321 223.737C321 221.289 319.838 217.912 317.734 213.803V239.327ZM253.05 263.523V206.955H196.633V263.523L253.05 263.523ZM188.367 263.523V206.955L131.95 206.955V263.523H188.367ZM253.05 142.114V198.682L196.633 198.682V142.114H253.05ZM188.367 142.114V198.682H131.95L131.95 142.114H188.367Z" fill="url(#paint0_radial_3_6)" fill-opacity="0.75"/>
<path d="M321 223.737C321 197.947 192 69 192 69C192 69 63 197.947 63 223.737C63 249.526 101.7 314 192 314C282.3 314 321 249.526 321 223.737Z" stroke="#D01000" stroke-width="20" stroke-linejoin="round"/>
<defs>
<radialGradient id="paint0_radial_3_6" cx="0" cy="0" r="1" gradientUnits="userSpaceOnUse" gradientTransform="translate(192 198) rotate(90) scale(126 132.181)">
<stop offset="0.285" stop-color="#D01000"/>
<stop offset="0.65" stop-color="#D01000" stop-opacity="0.842657"/>
<stop offset="1" stop-color="#D01000" stop-opacity="0.5"/>
</radialGradient>
</defs>
</svg>
