<svg width="512" height="512" viewBox="0 0 512 512" fill="none" xmlns="http://www.w3.org/2000/svg">
<path d="M240.63 129H90V240.637H240.63V129Z" fill="#0C0C0B"/>
<path d="M422 129H271.37V240.637H422V129Z" fill="#0C0C0B"/>
<path d="M90 271.363H240.63V383H90V271.363Z" fill="#0C0C0B"/>
<path d="M422 271.363H271.37V383H422V271.363Z" fill="#0C0C0B"/>
<path d="M160.191 189.94V240.637H170.438V189.94H240.63V179.698H170.438V129H160.191V179.698H90V189.94H160.191Z" fill="url(#paint0_radial_3_6)" fill-opacity="0.75"/>
<path d="M341.562 189.94V240.637H351.809V189.94H422V179.698H351.809V129H341.562V179.698H271.37V189.94H341.562Z" fill="url(#paint1_radial_3_6)" fill-opacity="0.75"/>
<path d="M160.191 332.302V383H170.438V332.302H240.63V322.06H170.438V271.363H160.191V322.06H90V332.302H160.191Z" fill="url(#paint2_radial_3_6)" fill-opacity="0.75"/>
<path d="M341.562 332.302V383H351.809V332.302H422V322.06H351.809V271.363H341.562V322.06H271.37V332.302H341.562Z" fill="url(#paint3_radial_3_6)" fill-opacity="0.75"/>
<path d="M240.63 129H90V240.637H240.63V129Z" fill="url(#paint4_radial_3_6)"/>
<path d="M422 129H271.37V240.637H422V129Z" fill="url(#paint5_radial_3_6)"/>
<path d="M90 271.363H240.63V383H90V271.363Z" fill="url(#paint6_radial_3_6)"/>
<path d="M422 271.363H271.37V383H422V271.363Z" fill="url(#paint7_radial_3_6)"/>
<path d="M240.63 129H90V240.637H240.63V129Z" stroke="#D01000" stroke-width="20" stroke-linejoin="round"/>
<path d="M422 129H271.37V240.637H422V129Z" stroke="#D01000" stroke-width="20" stroke-linejoin="round"/>
<path d="M90 271.363H240.63V383H90V271.363Z" stroke="#D01000" stroke-width="20" stroke-linejoin="round"/>
<path d="M422 271.363H271.37V383H422V271.363Z" stroke="#D01000" stroke-width="20" stroke-linejoin="round"/>
<defs>
<radialGradient id="paint0_radial_3_6" cx="0" cy="0" r="1" gradientUnits="userSpaceOnUse" gradientTransform="translate(256 256) rotate(90) scale(127 364.748)">
<stop offset="0.285" stop-color="#D01000"/>
<stop offset="0.65" stop-color="#D01000" stop-opacity="0.842657"/>
<stop offset="1" stop-color="#D01000" stop-opacity="0.5"/>
</radialGradient>
<radialGradient id="paint1_radial_3_6" cx="0" cy="0" r="1" gradientUnits="userSpaceOnUse" gradientTransform="translate(256 256) rotate(90) scale(127 364.748)">
<stop offset="0.285" stop-color="#D01000"/>
<stop offset="0.65" stop-color="#D01000" stop-opacity="0.842657"/>
<stop offset="1" stop-color="#D01000" stop-opacity="0.5"/>
</radialGradient>
<radialGradient id="paint2_radial_3_6" cx="0" cy="0" r="1" gradientUnits="userSpaceOnUse" gradientTransform="translate(256 256) rotate(90) scale(127 364.748)">
<stop offset="0.285" stop-color="#D01000"/>
<stop offset="0.65" stop-color="#D01000" stop-opacity="0.842657"/>
<stop offset="1" stop-color="#D01000" stop-opacity="0.5"/>
</radialGradient>
<radialGradient id="paint3_radial_3_6" cx="0" cy="0" r="1" gradientUnits="userSpaceOnUse" gradientTransform="translate(256 256) rotate(90) scale(127 364.748)">
<stop offset="0.285" stop-color="#D01000"/>
<stop offset="0.65" stop-color="#D01000" stop-opacity="0.842657"/>
<stop offset="1" stop-color="#D01000" stop-opacity="0.5"/>
</radialGradient>
<radialGradient id="paint4_radial_3_6" cx="0" cy="0" r="1" gradientUnits="userSpaceOnUse" gradientTransform="translate(256 256) rotate(90) scale(127 165.997)">
<stop stop-color="#D01000" stop-opacity="0.05"/>
<stop offset="0.36" stop-color="#D01000" stop-opacity="0.055"/>
<stop offset="0.705" stop-color="#D01000" stop-opacity="0.0722266"/>
<stop offset="1" stop-color="#D01000" stop-opacity="0.1"/>
</radialGradient>
<radialGradient id="paint5_radial_3_6" cx="0" cy="0" r="1" gradientUnits="userSpaceOnUse" gradientTransform="translate(256 256) rotate(90) scale(127 165.997)">
<stop stop-color="#D01000" stop-opacity="0.05"/>
<stop offset="0.36" stop-color="#D01000" stop-opacity="0.055"/>
<stop offset="0.705" stop-color="#D01000" stop-opacity="0.0722266"/>
<stop offset="1" stop-color="#D01000" stop-opacity="0.1"/>
</radialGradient>
<radialGradient id="paint6_radial_3_6" cx="0" cy="0" r="1" gradientUnits="userSpaceOnUse" gradientTransform="translate(256 256) rotate(90) scale(127 165.997)">
<stop stop-color="#D01000" stop-opacity="0.05"/>
<stop offset="0.36" stop-color="#D01000" stop-opacity="0.055"/>
<stop offset="0.705" stop-color="#D01000" stop-opacity="0.0722266"/>
<stop offset="1" stop-color="#D01000" stop-opacity="0.1"/>
</radialGradient>
<radialGradient id="paint7_radial_3_6" cx="0" cy="0" r="1" gradientUnits="userSpaceOnUse" gradientTransform="translate(256 256) rotate(90) scale(127 165.997)">
<stop stop-color="#D01000" stop-opacity="0.05"/>
<stop offset="0.36" stop-color="#D01000" stop-opacity="0.055"/>
<stop offset="0.705" stop-color="#D01000" stop-opacity="0.0722266"/>
<stop offset="1" stop-color="#D01000" stop-opacity="0.1"/>
</radialGradient>
</defs>
</svg>
