<svg width="512" height="512" viewBox="0 0 512 512" fill="none" xmlns="http://www.w3.org/2000/svg">
<path d="M299.548 85L129 85V426H382V173.813L299.548 85Z" fill="#0C0C0B"/>
<path fill-rule="evenodd" clip-rule="evenodd" d="M328.104 118.862L319.383 109.809L319.383 147.248L259.861 147.248V89.3606H251.139V147.248L191.617 147.248L191.617 89.3606H182.896L182.896 147.248H128.606V155.969H182.896L182.896 215.6L128.606 215.6V224.322H182.896L182.896 283.953L128.606 283.953V292.674H182.896V352.306H128.606V361.027H182.896V419.023H191.617L191.617 361.027L251.139 361.027L251.139 419.023H259.861V361.027H319.383V419.023H328.104V361.027H382.394V352.306H328.104V292.674H382.394V283.953H328.104L328.104 224.322H382.394V215.6H328.104V155.969H363.849L355.448 147.248H328.104V118.862ZM319.383 292.674V352.306L259.861 352.306V292.674H319.383ZM251.139 292.674V352.306H191.617L191.617 292.674H251.139ZM319.383 283.953V224.322H259.861L259.861 283.953H319.383ZM251.139 283.953V224.322H191.617L191.617 283.953H251.139ZM319.383 155.969V215.6L259.861 215.6V155.969H319.383ZM251.139 155.969V215.6H191.617V155.969L251.139 155.969Z" fill="url(#paint0_radial_1_2)" fill-opacity="0.75"/>
<path d="M299.548 85L129 85V426H382V173.813L299.548 85Z" fill="url(#paint1_radial_1_2)" stroke="#D01000" stroke-width="20" stroke-linejoin="round"/>
<defs>
<radialGradient id="paint0_radial_1_2" cx="0" cy="0" r="1" gradientUnits="userSpaceOnUse" gradientTransform="translate(255.5 254.192) rotate(90) scale(164.831 126.894)">
<stop offset="0.285" stop-color="#D01000"/>
<stop offset="0.65" stop-color="#D01000" stop-opacity="0.842657"/>
<stop offset="1" stop-color="#D01000" stop-opacity="0.5"/>
</radialGradient>
<radialGradient id="paint1_radial_1_2" cx="0" cy="0" r="1" gradientUnits="userSpaceOnUse" gradientTransform="translate(255.935 280.355) rotate(90.171) scale(145.645 108.059)">
<stop stop-color="#D01000" stop-opacity="0.05"/>
<stop offset="0.36" stop-color="#D01000" stop-opacity="0.055"/>
<stop offset="0.705" stop-color="#D01000" stop-opacity="0.0722266"/>
<stop offset="1" stop-color="#D01000" stop-opacity="0.1"/>
</radialGradient>
</defs>
</svg>
