<svg width="512" height="512" viewBox="0 0 512 512" fill="none" xmlns="http://www.w3.org/2000/svg">
<path d="M404.349 129.975C420.752 134.37 433.643 147.275 438.033 163.695C445.968 193.428 446 255.5 446 255.5C446 255.5 446 317.572 438.033 347.305C433.643 363.726 420.752 376.63 404.349 381.025C374.649 389 255.499 389 255.499 389C255.499 389 136.351 389 106.65 381.025C90.2474 376.63 77.3571 363.726 72.9662 347.305C65 317.572 65 255.5 65 255.5C65 255.5 65 193.428 72.9662 163.695C77.3571 147.275 90.2474 134.37 106.65 129.975C136.351 122 255.499 122 255.499 122C255.499 122 374.649 122 404.349 129.975Z" fill="#0C0C0B"/>
<path d="M404.349 129.975C420.752 134.37 433.643 147.275 438.033 163.695C445.968 193.428 446 255.5 446 255.5C446 255.5 446 317.572 438.033 347.305C433.643 363.726 420.752 376.63 404.349 381.025C374.649 389 255.499 389 255.499 389C255.499 389 136.351 389 106.65 381.025C90.2474 376.63 77.3571 363.726 72.9662 347.305C65 317.572 65 255.5 65 255.5C65 255.5 65 193.428 72.9662 163.695C77.3571 147.275 90.2474 134.37 106.65 129.975C136.351 122 255.499 122 255.499 122C255.499 122 374.649 122 404.349 129.975Z" fill="url(#paint0_radial_1_34)" stroke="#D01000" stroke-width="20" stroke-linejoin="round"/>
<path fill-rule="evenodd" clip-rule="evenodd" d="M71.0393 172.25C70.4365 175.408 69.8939 178.765 69.4055 182.25H93.75V250.5H65.0402C65 253.675 65 255.5 65 255.5C65 255.5 65 257.325 65.0402 260.5H93.75V328.75H69.4054C69.8938 332.235 70.4364 335.592 71.0392 338.75H93.75V375.405C96.86 377.353 100.211 378.952 103.75 380.147V338.75H172.125V387.288C175.453 387.428 178.794 387.557 182.125 387.675V338.75H250.5V388.985C253.704 389 255.499 389 255.499 389C255.499 389 257.295 389 260.5 388.985V338.75H328.875V387.675C332.206 387.557 335.547 387.428 338.875 387.288V338.75H407.25V380.147C410.789 378.952 414.14 377.353 417.25 375.405V338.75H439.96C440.563 335.592 441.106 332.235 441.594 328.75H417.25V260.5H445.96C446 257.325 446 255.5 446 255.5C446 255.5 445.999 253.675 445.957 250.5H417.25V182.25H441.583C441.095 178.765 440.554 175.408 439.953 172.25H417.25V135.595C414.14 133.647 410.789 132.048 407.25 130.853V172.25H338.875V123.712C335.547 123.572 332.206 123.443 328.875 123.325V172.25H260.5V122.015C257.295 122 255.499 122 255.499 122C255.499 122 253.704 122 250.5 122.015V172.25H182.125V123.325C178.794 123.443 175.453 123.572 172.125 123.712V172.25H103.75V130.852C100.211 132.048 96.86 133.647 93.75 135.595V172.25H71.0393ZM407.25 182.25H338.875V250.5H407.25V182.25ZM407.25 260.5H338.875V328.75H407.25V260.5ZM260.5 182.25H328.875V250.5H306.11L315.982 256.206L308.552 260.5H328.875V328.75H260.5V288.271L250.5 294.05V328.75H182.125V260.5H217V250.5H182.125V182.25H250.5V218.361L260.5 224.14V182.25ZM103.75 182.25H172.125V250.5H103.75V182.25ZM103.75 260.5H172.125V328.75H103.75V260.5Z" fill="url(#paint1_radial_1_34)" fill-opacity="0.75"/>
<path fill-rule="evenodd" clip-rule="evenodd" d="M315.982 256.206L217 313.41V199L315.982 256.206Z" stroke="#D01000" stroke-width="10" stroke-linejoin="round"/>
<defs>
<radialGradient id="paint0_radial_1_34" cx="0" cy="0" r="1" gradientUnits="userSpaceOnUse" gradientTransform="translate(256.155 274.962) rotate(90.3289) scale(114.04 162.728)">
<stop stop-color="#D01000" stop-opacity="0.05"/>
<stop offset="0.36" stop-color="#D01000" stop-opacity="0.055"/>
<stop offset="0.705" stop-color="#D01000" stop-opacity="0.0722266"/>
<stop offset="1" stop-color="#D01000" stop-opacity="0.1"/>
</radialGradient>
<radialGradient id="paint1_radial_1_34" cx="0" cy="0" r="1" gradientUnits="userSpaceOnUse" gradientTransform="translate(255.5 255.5) rotate(90) scale(133.5 161.5)">
<stop offset="0.285" stop-color="#D01000"/>
<stop offset="0.65" stop-color="#D01000" stop-opacity="0.842657"/>
<stop offset="1" stop-color="#D01000" stop-opacity="0.5"/>
</radialGradient>
</defs>
</svg>
